<?xml version="1.0" encoding="UTF-8" standalone="no"?>
<svg width="126px" height="91px" viewBox="0 0 126 91" version="1.1" xmlns="http://www.w3.org/2000/svg" xmlns:xlink="http://www.w3.org/1999/xlink">
    <!-- Generator: Sketch 3.7.2 (28276) - http://www.bohemiancoding.com/sketch -->
    <title>Group 5</title>
    <desc>Created with Sketch.</desc>
    <defs>
        <rect id="path-1" x="8.20293725" y="13.7142857" width="1.36715621" height="41.1428571" rx="3"></rect>
        <mask id="mask-2" maskContentUnits="userSpaceOnUse" maskUnits="objectBoundingBox" x="0" y="0" width="1.36715621" height="41.1428571" fill="white">
            <use xlink:href="#path-1"></use>
        </mask>
        <rect id="path-3" x="0" y="10.6285714" width="10.2536716" height="6.17142857" rx="27.6"></rect>
        <mask id="mask-4" maskContentUnits="userSpaceOnUse" maskUnits="objectBoundingBox" x="0" y="0" width="10.2536716" height="6.17142857" fill="white">
            <use xlink:href="#path-3"></use>
        </mask>
        <rect id="path-5" x="11.6208278" y="3.08571429" width="1.36715621" height="41.1428571" rx="3"></rect>
        <mask id="mask-6" maskContentUnits="userSpaceOnUse" maskUnits="objectBoundingBox" x="0" y="0" width="1.36715621" height="41.1428571" fill="white">
            <use xlink:href="#path-5"></use>
        </mask>
        <rect id="path-7" x="10.9372497" y="0" width="10.2536716" height="6.17142857" rx="27.6"></rect>
        <mask id="mask-8" maskContentUnits="userSpaceOnUse" maskUnits="objectBoundingBox" x="0" y="0" width="10.2536716" height="6.17142857" fill="white">
            <use xlink:href="#path-7"></use>
        </mask>
        <rect id="path-9" x="14.6969292" y="10.2857143" width="1.36715621" height="41.1428571" rx="3"></rect>
        <mask id="mask-10" maskContentUnits="userSpaceOnUse" maskUnits="objectBoundingBox" x="0" y="0" width="1.36715621" height="41.1428571" fill="white">
            <use xlink:href="#path-9"></use>
        </mask>
        <rect id="path-11" x="14.0133511" y="7.2" width="10.2536716" height="6.17142857" rx="27.6"></rect>
        <mask id="mask-12" maskContentUnits="userSpaceOnUse" maskUnits="objectBoundingBox" x="0" y="0" width="10.2536716" height="6.17142857" fill="white">
            <use xlink:href="#path-11"></use>
        </mask>
        <rect id="path-13" x="5.12683578" y="20.5714286" width="27.3431242" height="68.5714286" rx="3"></rect>
        <mask id="mask-14" maskContentUnits="userSpaceOnUse" maskUnits="objectBoundingBox" x="0" y="0" width="27.3431242" height="68.5714286" fill="white">
            <use xlink:href="#path-13"></use>
        </mask>
        <path d="M18.3449521,89.1428571 L8.54153931,89.1428571 C6.65565062,89.1428571 5.12683578,87.6063599 5.12683578,85.7130523 L5.12683578,24.0012334 C5.12683578,22.1070045 6.6553682,20.5714286 8.54153931,20.5714286 L18.3449521,20.5714286" id="path-15"></path>
        <mask id="mask-16" maskContentUnits="userSpaceOnUse" maskUnits="objectBoundingBox" x="0" y="0" width="13.2181163" height="68.5714286" fill="white">
            <use xlink:href="#path-15"></use>
        </mask>
        <rect id="path-17" x="10.2536716" y="66.8571429" width="17.0894526" height="17.1428571" rx="3"></rect>
        <mask id="mask-18" maskContentUnits="userSpaceOnUse" maskUnits="objectBoundingBox" x="0" y="0" width="17.0894526" height="17.1428571" fill="white">
            <use xlink:href="#path-17"></use>
        </mask>
        <rect id="path-19" x="8.5447263" y="63.0857143" width="20.5073431" height="5.14285714" rx="1.2"></rect>
        <mask id="mask-20" maskContentUnits="userSpaceOnUse" maskUnits="objectBoundingBox" x="0" y="0" width="20.5073431" height="5.14285714" fill="white">
            <use xlink:href="#path-19"></use>
        </mask>
        <rect id="path-21" x="1.70894526" y="20.5714286" width="34.1789052" height="6.85714286" rx="1.2"></rect>
        <mask id="mask-22" maskContentUnits="userSpaceOnUse" maskUnits="objectBoundingBox" x="0" y="0" width="34.1789052" height="6.85714286" fill="white">
            <use xlink:href="#path-21"></use>
        </mask>
        <path d="M18.4541514,27.4285714 L3.07855884,27.4285714 C2.32214215,27.4285714 1.70894526,26.8140111 1.70894526,26.0574069 L1.70894526,21.9425931 C1.70894526,21.1853199 2.32220651,20.5714286 3.07855884,20.5714286 L18.4541514,20.5714286" id="path-23"></path>
        <mask id="mask-24" maskContentUnits="userSpaceOnUse" maskUnits="objectBoundingBox" x="0" y="0" width="16.7452062" height="6.85714286" fill="white">
            <use xlink:href="#path-23"></use>
        </mask>
        <rect id="path-25" x="1.02318624" y="0" width="2.72849663" height="89.1428571" rx="3"></rect>
        <mask id="mask-26" maskContentUnits="userSpaceOnUse" maskUnits="objectBoundingBox" x="0" y="0" width="2.72849663" height="89.1428571" fill="white">
            <use xlink:href="#path-25"></use>
        </mask>
        <rect id="path-27" x="0" y="0" width="4.77486911" height="24" rx="3"></rect>
        <mask id="mask-28" maskContentUnits="userSpaceOnUse" maskUnits="objectBoundingBox" x="0" y="0" width="4.77486911" height="24" fill="white">
            <use xlink:href="#path-27"></use>
        </mask>
        <rect id="path-29" x="0.00706385537" y="0.0548038542" width="18.4173523" height="11.3142857" rx="27.6"></rect>
        <mask id="mask-30" maskContentUnits="userSpaceOnUse" maskUnits="objectBoundingBox" x="0" y="0" width="18.4173523" height="11.3142857" fill="white">
            <use xlink:href="#path-29"></use>
        </mask>
    </defs>
    <g id="Page-1" stroke="none" stroke-width="1" fill="none" fill-rule="evenodd">
        <g id="Desktop-HD-Copy-14" transform="translate(-874.000000, -102.000000)" stroke="#4B4B4B">
            <g id="Group-5" transform="translate(875.000000, 102.000000)">
                <g id="Group-4">
                    <g id="Group-4-Copy" transform="translate(51.428571, 0.000000)">
                        <use id="Rectangle-167-Copy-2" mask="url(#mask-2)" stroke-width="2.4" fill="#D8D8D8" xlink:href="#path-1"></use>
                        <use id="Rectangle-167-Copy" mask="url(#mask-4)" stroke-width="2.4" fill="#D8D8D8" xlink:href="#path-3"></use>
                        <use id="Rectangle-167-Copy-2" mask="url(#mask-6)" stroke-width="2.4" fill="#D8D8D8" transform="translate(12.304406, 23.657143) scale(-1, 1) translate(-12.304406, -23.657143) " xlink:href="#path-5"></use>
                        <use id="Rectangle-167-Copy" mask="url(#mask-8)" stroke-width="2.4" fill="#D8D8D8" transform="translate(16.064085, 3.085714) scale(-1, 1) translate(-16.064085, -3.085714) " xlink:href="#path-7"></use>
                        <use id="Rectangle-167-Copy-2" mask="url(#mask-10)" stroke-width="2.4" fill="#D8D8D8" transform="translate(15.380507, 30.857143) scale(-1, 1) translate(-15.380507, -30.857143) " xlink:href="#path-9"></use>
                        <use id="Rectangle-167-Copy" mask="url(#mask-12)" stroke-width="2.4" fill="#D8D8D8" transform="translate(19.140187, 10.285714) scale(-1, 1) translate(-19.140187, -10.285714) " xlink:href="#path-11"></use>
                        <use id="Rectangle-167" mask="url(#mask-14)" stroke-width="2.4" fill="#D5A885" xlink:href="#path-13"></use>
                        <use id="Rectangle-167" mask="url(#mask-16)" stroke-width="2.4" fill="#C09574" xlink:href="#path-15"></use>
                        <use id="Rectangle-167" mask="url(#mask-18)" stroke-width="2.4" xlink:href="#path-17"></use>
                        <use id="Rectangle-167" mask="url(#mask-20)" stroke-width="2.4" xlink:href="#path-19"></use>
                        <use id="Rectangle-167" mask="url(#mask-22)" stroke-width="2.4" fill="#D5A885" xlink:href="#path-21"></use>
                        <use id="Rectangle-167" mask="url(#mask-24)" stroke-width="2.4" fill="#C09574" xlink:href="#path-23"></use>
                        <path d="M27.751101,33.0933757 C27.751101,33.0933757 43.9035191,44.496979 31.9211298,77.7548189" id="Path-31" stroke-width="1.2" stroke-linecap="round" stroke-linejoin="round"></path>
                    </g>
                    <ellipse id="Oval-26-Copy-5" stroke-width="1.2" fill="#FFFFFF" cx="98.1480927" cy="85.6" rx="4.43380703" ry="4.45714286"></ellipse>
                    <ellipse id="Oval-26-Copy" stroke-width="1.2" fill="#FFFFFF" cx="4.43380703" cy="85.6" rx="4.43380703" ry="4.45714286"></ellipse>
                    <ellipse id="Oval-26-Copy-2" stroke-width="1.2" fill="#FFFFFF" cx="81.0052356" cy="85.6" rx="4.43380703" ry="4.45714286"></ellipse>
                    <ellipse id="Oval-26-Copy-3" stroke-width="1.2" fill="#FFFFFF" cx="90.1480927" cy="85.6" rx="4.43380703" ry="4.45714286"></ellipse>
                    <ellipse id="Oval-26-Copy-4" stroke-width="1.2" fill="#FFFFFF" cx="85.5766642" cy="77.6" rx="4.43380703" ry="4.45714286"></ellipse>
                </g>
                <g id="Group-7" transform="translate(81.309915, 75.038872) rotate(-285.000000) translate(-81.309915, -75.038872) translate(78.922481, 30.467443)" stroke-width="2.4" fill="#D5A885">
                    <use id="Rectangle-167-Copy-3" mask="url(#mask-26)" xlink:href="#path-25"></use>
                    <use id="Rectangle-167-Copy-3" mask="url(#mask-28)" xlink:href="#path-27"></use>
                </g>
                <g id="Group-9" transform="translate(33.109127, 82.268893) rotate(-315.000000) translate(-33.109127, -82.268893) translate(21.609127, 71.768893)">
                    <g id="Group-6" transform="translate(11.164517, 10.380881) rotate(-330.000000) translate(-11.164517, -10.380881) translate(1.785309, 4.552309)">
                        <use id="Rectangle-167-Copy-4" mask="url(#mask-30)" stroke-width="2.4" fill="#D8D8D8" transform="translate(9.215740, 5.711947) scale(-1, 1) rotate(-180.000000) translate(-9.215740, -5.711947) " xlink:href="#path-29"></use>
                        <path d="M5.28646223,4.28571429 L13.4719521,4.28571429" id="Line" stroke-width="1.5" stroke-linecap="round" stroke-linejoin="round"></path>
                        <path d="M5.28646223,7.02857143 L13.4719521,7.02857143" id="Line" stroke-width="1.5" stroke-linecap="round" stroke-linejoin="round"></path>
                    </g>
                </g>
            </g>
        </g>
    </g>
</svg>